<svg xmlns="http://www.w3.org/2000/svg" viewBox="0 0 64 64" width="64" height="64" fill="none">
  <defs>
    <linearGradient id="bg" x1="12" y1="10" x2="54" y2="56" gradientUnits="userSpaceOnUse">
      <stop stop-color="#69A7FF" />
      <stop offset="1" stop-color="#2D6EE8" />
    </linearGradient>
  </defs>
  <rect x="5" y="5" width="54" height="54" rx="16" fill="url(#bg)" />
  <rect x="5" y="5" width="54" height="54" rx="16" stroke="#fff" stroke-opacity="0.28" />
  <path
    d="M21.5 20.5C17.8 22.2 15.5 26.1 15.5 32C15.5 37.9 17.8 41.8 21.5 43.5"
    stroke="#fff"
    stroke-width="4.2"
    stroke-linecap="round"
    stroke-linejoin="round"
  />
  <path
    d="M42.5 20.5C46.2 22.2 48.5 26.1 48.5 32C48.5 37.9 46.2 41.8 42.5 43.5"
    stroke="#fff"
    stroke-width="4.2"
    stroke-linecap="round"
    stroke-linejoin="round"
  />
  <circle cx="28" cy="25.5" r="2.2" fill="#fff" fill-opacity="0.96" />
  <rect x="31.5" y="23.8" width="7.5" height="3.4" rx="1.7" fill="#fff" fill-opacity="0.96" />
  <circle cx="28" cy="32" r="2.2" fill="#fff" />
  <rect x="31.5" y="30.3" width="9.5" height="3.4" rx="1.7" fill="#fff" />
  <circle cx="28" cy="38.5" r="2.2" fill="#fff" fill-opacity="0.9" />
  <rect x="31.5" y="36.8" width="6.5" height="3.4" rx="1.7" fill="#fff" fill-opacity="0.9" />
</svg>
